<svg width="20" height="21" viewBox="0 0 20 21" fill="none" xmlns="http://www.w3.org/2000/svg">
<path d="M14.3807 11.8556L14.3807 11.8556C14.4968 11.7064 14.5599 11.5228 14.5599 11.3337V7.69277C14.5599 7.22333 14.1793 6.84277 13.7099 6.84277H10.4782C10.0087 6.84277 9.62816 7.22333 9.62816 7.69277V8.90406C9.62816 9.37351 10.0087 9.75406 10.4782 9.75406H11.6872V10.6166L9.68201 13.1936H8.38281V10.5154C8.38281 10.0459 8.00225 9.66535 7.53281 9.66535H2.24209C1.77264 9.66535 1.39209 10.0459 1.39209 10.5154V15.2549C1.39209 15.7243 1.77265 16.1049 2.24209 16.1049H2.86193C3.18244 17.3151 4.26109 18.2218 5.57379 18.2218C6.88649 18.2218 7.96513 17.3151 8.28564 16.1049H10.6587C10.9209 16.1049 11.1685 15.9838 11.3296 15.7769L14.3807 11.8556Z" fill="#079004" stroke="black" stroke-width="1.5"/>
<path d="M2.16099 1.77148C1.69155 1.77148 1.31099 2.15204 1.31099 2.62148V6.69397C1.31099 7.16341 1.69154 7.54397 2.16099 7.54397L7.34482 7.54397C7.81427 7.54397 8.19482 7.1634 8.19482 6.69397V2.62148C8.19482 2.15204 7.81426 1.77148 7.34482 1.77148H2.16099ZM16.0212 12.5662C14.4482 12.5662 13.2122 13.8673 13.2122 15.4331C13.2122 16.999 14.4482 18.3001 16.0212 18.3001C17.5942 18.3001 18.8302 16.999 18.8302 15.4331C18.8302 13.8673 17.5942 12.5662 16.0212 12.5662ZM16.0212 15.3888C16.048 15.3888 16.0667 15.4009 16.0741 15.4086C16.0813 15.416 16.0849 15.4254 16.0849 15.4331C16.0849 15.4409 16.0813 15.4503 16.0741 15.4577C16.0667 15.4654 16.048 15.4775 16.0212 15.4775C15.9944 15.4775 15.9758 15.4654 15.9683 15.4577C15.9611 15.4503 15.9575 15.4409 15.9575 15.4331C15.9575 15.4254 15.9611 15.416 15.9683 15.4086C15.9758 15.4009 15.9944 15.3888 16.0212 15.3888Z" fill="#079004" stroke="black" stroke-width="1.5"/>
</svg>
