<svg width="112" height="122" viewBox="0 0 112 122" fill="none" xmlns="http://www.w3.org/2000/svg">
<circle cx="11" cy="121" r="11" fill="#06B863"/>
<circle cx="26" cy="118" r="11" fill="#06B863"/>
<circle cx="26" cy="120" r="11" fill="#06B863"/>
<circle cx="35" cy="120" r="11" fill="#06B863"/>
<rect x="24" y="18" width="84" height="104" fill="#FCFCFC"/>
<rect x="52" y="83" width="27" height="39" fill="#3F3F3F"/>
<rect x="52" y="83" width="27" height="2" fill="black"/>
<rect x="64" y="85" width="3" height="37" fill="#D9D9D9"/>
<rect x="20" width="92" height="19" fill="#003B65"/>
<path d="M44.5003 93.9999L52.0002 82.9999L52.0002 84.9999L79.0002 84.9999L74.0003 93.9999L44.5003 93.9999Z" fill="black" fill-opacity="0.3"/>
<rect x="40" y="41" width="12.25" height="6.33333" fill="#D9D9D9"/>
<rect x="40" y="34" width="12.25" height="6.33333" fill="#D9D9D9"/>
<rect x="40" y="48.3333" width="12.25" height="6.33333" fill="#D9D9D9"/>
<rect x="40" y="55.6667" width="12.25" height="6.33333" fill="#D9D9D9"/>
<rect x="53.25" y="41" width="12.25" height="6.33333" fill="#D9D9D9"/>
<rect x="53.25" y="34" width="12.25" height="6.33333" fill="#D9D9D9"/>
<rect x="53.25" y="48.3333" width="12.25" height="6.33333" fill="#D9D9D9"/>
<rect x="53.25" y="55.6667" width="12.25" height="6.33333" fill="#D9D9D9"/>
<rect x="66.5" y="41" width="12.25" height="6.33333" fill="#D9D9D9"/>
<rect x="66.5" y="34" width="12.25" height="6.33333" fill="#D9D9D9"/>
<rect x="66.5" y="48.3333" width="12.25" height="6.33333" fill="#D9D9D9"/>
<rect x="66.5" y="55.6667" width="12.25" height="6.33333" fill="#D9D9D9"/>
<rect x="79.75" y="41" width="12.25" height="6.33333" fill="#D9D9D9"/>
<rect x="79.75" y="34" width="12.25" height="6.33333" fill="#D9D9D9"/>
<rect x="79.75" y="48.3333" width="12.25" height="6.33333" fill="#D9D9D9"/>
<rect x="79.75" y="55.6667" width="12.25" height="6.33333" fill="#D9D9D9"/>
</svg>
