<svg width="42" height="41" viewBox="0 0 42 41" fill="none" xmlns="http://www.w3.org/2000/svg">
<circle cx="19.7473" cy="21.7903" r="18.1389" fill="white" stroke="#343434" stroke-width="1.5"/>
<circle cx="23.0808" cy="19.5681" r="18.1389" fill="white" stroke="#343434" stroke-width="1.5"/>
<g clip-path="url(#clip0_3_6675)">
<path d="M31.558 14.5209C31.1324 14.0951 30.627 13.7573 30.0708 13.5268C29.5146 13.2964 28.9184 13.1777 28.3163 13.1777C27.7143 13.1777 27.1181 13.2964 26.5619 13.5268C26.0057 13.7573 25.5003 14.0951 25.0747 14.5209L24.1913 15.4043L23.308 14.5209C22.4483 13.6612 21.2822 13.1782 20.0663 13.1782C18.8505 13.1782 17.6844 13.6612 16.8247 14.5209C15.9649 15.3807 15.4819 16.5467 15.4819 17.7626C15.4819 18.9784 15.9649 20.1445 16.8247 21.0043L17.708 21.8876L24.1913 28.3709L30.6747 21.8876L31.558 21.0043C31.9838 20.5786 32.3216 20.0733 32.5521 19.5171C32.7826 18.9608 32.9012 18.3647 32.9012 17.7626C32.9012 17.1605 32.7826 16.5643 32.5521 16.0081C32.3216 15.4519 31.9838 14.9466 31.558 14.5209Z" fill="#F0BD2D" stroke="#343434" stroke-width="1.5" stroke-linecap="round" stroke-linejoin="round"/>
</g>
<defs>
<clipPath id="clip0_3_6675">
<rect width="20" height="20" fill="white" transform="translate(14.1914 10.6792)"/>
</clipPath>
</defs>
</svg>
