<svg width="64" height="80" viewBox="0 0 64 80" fill="none" xmlns="http://www.w3.org/2000/svg">
<path d="M32.0003 0.833252C23.7442 0.832839 15.8216 4.09097 9.95436 9.89952C4.08715 15.7081 0.749553 23.5976 0.666992 31.8533C0.666992 53.3166 28.2795 77.2083 29.4545 78.2266C30.1639 78.8334 31.0668 79.1668 32.0003 79.1668C32.9339 79.1668 33.8367 78.8334 34.5462 78.2266C35.917 77.2083 63.3337 53.3166 63.3337 31.8533C63.2511 23.5976 59.9135 15.7081 54.0463 9.89952C48.1791 4.09097 40.2564 0.832839 32.0003 0.833252ZM32.0003 43.9166C29.2891 43.9166 26.6387 43.1126 24.3844 41.6063C22.1301 40.1 20.373 37.9591 19.3355 35.4542C18.2979 32.9493 18.0265 30.193 18.5554 27.5339C19.0843 24.8747 20.3899 22.4321 22.3071 20.515C24.2242 18.5979 26.6668 17.2923 29.326 16.7633C31.9851 16.2344 34.7414 16.5059 37.2463 17.5434C39.7511 18.581 41.8921 20.338 43.3984 22.5923C44.9047 24.8466 45.7087 27.497 45.7087 30.2083C45.7087 33.8439 44.2644 37.3307 41.6936 39.9015C39.1228 42.4723 35.636 43.9166 32.0003 43.9166Z" fill="#FD3C3C"/>
</svg>
