<svg width="14" height="24" viewBox="0 0 14 24" fill="none" xmlns="http://www.w3.org/2000/svg">
<path d="M12.3744 20.8036L12.369 20.7942L12.3633 20.7851L9.18899 15.6695L8.19097 14.0611L7.81653 15.9166C7.67816 16.6023 7.41723 17.2664 7.06459 17.8782L6.84133 18.2654L7.07577 18.6461L9.33491 22.3138L9.33481 22.3139L9.34203 22.3252C9.68023 22.8529 10.2744 23.1049 10.8498 23.1049C11.1162 23.1049 11.3361 23.0477 11.5196 22.9908L11.5574 22.9791L11.5938 22.9635C12.0008 22.7886 12.3263 22.4759 12.4825 22.068C12.6404 21.6556 12.6034 21.1975 12.3744 20.8036Z" fill="#2DA7FF" stroke="black" stroke-width="1.5"/>
<path d="M6.61277 5.21074C7.85595 5.21074 8.97553 4.27139 8.97553 2.98037C8.97553 1.68935 7.85595 0.75 6.61277 0.75C5.36958 0.75 4.25 1.68935 4.25 2.98037C4.25 4.27139 5.36958 5.21074 6.61277 5.21074Z" fill="#2DA7FF" stroke="black" stroke-width="1.5"/>
<path d="M11.0675 13.4626C11.4202 12.5913 11.0849 11.5957 10.2695 11.148L10.2547 11.1329L10.1188 11.074C9.38975 10.7581 8.7541 10.1803 8.2821 9.63906C7.90368 9.20511 7.66962 8.84095 7.60253 8.73658C7.585 8.7093 7.57887 8.69977 7.58456 8.71137L7.5749 8.69166L7.56412 8.67255C7.07952 7.814 5.97443 7.49705 5.10997 8.0218C5.02338 8.06966 4.95722 8.12021 4.91901 8.15024L4.89003 8.17331L4.87171 8.18798C4.87039 8.18903 4.86927 8.1899 4.86836 8.19062C4.11155 8.69392 2.31565 10.1456 1.40105 13.215C1.10898 14.1555 1.63632 15.1506 2.57269 15.4498C3.33966 15.6999 4.11756 15.3844 4.54449 14.7712C4.1996 16.0179 3.51995 17.2119 2.84971 18.1685C2.07083 19.2802 1.35 20.0081 1.31721 20.0412L1.31612 20.0423C0.642274 20.731 0.605995 21.8288 1.28513 22.5559L1.29107 22.5622L1.29716 22.5684C1.64729 22.9263 2.08771 23.1049 2.55594 23.1049C2.98085 23.1049 3.44027 22.9434 3.78277 22.601C3.97172 22.4221 4.86196 21.5101 5.79495 20.1599C6.77223 18.7456 7.84514 16.7815 8.1653 14.6198C8.18895 14.4788 8.20821 14.3392 8.22409 14.2018C8.37849 14.283 8.53768 14.3598 8.70209 14.4318L8.70222 14.4319C8.95304 14.5417 9.19387 14.5725 9.4024 14.5725C10.0997 14.5725 10.768 14.1436 11.0587 13.4833L11.0632 13.473L11.0675 13.4626Z" fill="#2DA7FF" stroke="black" stroke-width="1.5"/>
</svg>
