<svg width="26" height="26" viewBox="0 0 26 26" fill="none" xmlns="http://www.w3.org/2000/svg">
<rect width="26" height="26" rx="3.35484" fill="#EEEEEE"/>
<g clip-path="url(#clip0_328_24817)">
<path d="M12.9994 6.36035C10.4298 6.36035 8.35156 8.4386 8.35156 11.0082C8.35156 14.4941 12.9994 19.6399 12.9994 19.6399C12.9994 19.6399 17.6473 14.4941 17.6473 11.0082C17.6473 8.4386 15.569 6.36035 12.9994 6.36035ZM12.9994 12.6681C12.0831 12.6681 11.3395 11.9245 11.3395 11.0082C11.3395 10.0919 12.0831 9.34825 12.9994 9.34825C13.9157 9.34825 14.6594 10.0919 14.6594 11.0082C14.6594 11.9245 13.9157 12.6681 12.9994 12.6681Z" fill="#003B65"/>
</g>
<defs>
<clipPath id="clip0_328_24817">
<rect width="15.9355" height="15.9355" fill="white" transform="translate(5.03125 5.03223)"/>
</clipPath>
</defs>
</svg>
