<svg width="31" height="30" viewBox="0 0 31 30" fill="none" xmlns="http://www.w3.org/2000/svg">
<circle cx="14.353" cy="15.4145" r="12.8881" fill="white" stroke="#343434" stroke-width="1.5"/>
<circle cx="16.7602" cy="13.81" r="12.8881" fill="white" stroke="#343434" stroke-width="1.5"/>
<g clip-path="url(#clip0_3_5564)">
<path d="M22.8807 10.1656C22.5734 9.85815 22.2085 9.61425 21.8069 9.44785C21.4053 9.28145 20.9748 9.1958 20.5401 9.1958C20.1054 9.1958 19.675 9.28145 19.2734 9.44785C18.8718 9.61425 18.5069 9.85815 18.1996 10.1656L17.5618 10.8034L16.924 10.1656C16.3033 9.54486 15.4613 9.19612 14.5835 9.19612C13.7056 9.19612 12.8637 9.54486 12.2429 10.1656C11.6222 10.7864 11.2734 11.6283 11.2734 12.5062C11.2734 13.384 11.6222 14.2259 12.2429 14.8467L12.8807 15.4845L17.5618 20.1656L22.2429 15.4845L22.8807 14.8467C23.1881 14.5394 23.432 14.1745 23.5984 13.7729C23.7648 13.3713 23.8505 12.9409 23.8505 12.5062C23.8505 12.0714 23.7648 11.641 23.5984 11.2394C23.432 10.8378 23.1881 10.4729 22.8807 10.1656Z" fill="white" stroke="#343434" stroke-width="1.5" stroke-linecap="round" stroke-linejoin="round"/>
</g>
<defs>
<clipPath id="clip0_3_5564">
<rect width="14.4404" height="14.4404" fill="white" transform="translate(10.3418 7.39209)"/>
</clipPath>
</defs>
</svg>
